<svg viewBox="0 0 1250 300" fill="none" xmlns="http://www.w3.org/2000/svg">
<g id="Frame 1" clip-path="url(#clip0_0_1)">
<path id="Vector 1" d="M922.5 167.976C903.306 193.34 885.036 195.31 873 167.976C842.873 99.5569 803.5 145.324 787 167.976C770.5 190.627 665.517 347.213 572 167.976C478.483 -11.2618 365.5 135.76 324.5 167.976C283.5 200.191 202.5 281.738 109 167.976C15.5 54.2128 16.4365 59.6957 -46 167.976V340.5H1319V167.976C1306.05 64.2772 1217.13 25.2645 1168 167.976C1123.68 307.753 1055.17 263.557 1011.5 167.976C988.563 117.775 957.544 121.665 922.5 167.976Z" fill="black"/>
</g>
<defs>
<clipPath id="clip0_0_1">
<rect width="1250" height="300" fill="white"/>
</clipPath>
</defs>
</svg>
