<svg viewBox="0 0 650 39"  xmlns="http://www.w3.org/2000/svg">
<path id="Vector 1" d="M574.431 19.118C556.155 25.5506 546.882 32.798 523.231 19.118C491.76 -1.08786 473.032 2.44061 438.872 19.118C409.348 33.8115 392.972 40.7109 368.167 19.118C333.645 -8.41503 313.215 -3.70733 276.006 19.118C248.092 34.9285 240.929 54.8391 176.044 19.118C146.605 -2.79971 131.519 -1.72479 106.558 19.118C88.6121 27.8843 69.4529 24.6517 58.0394 19.118C34.5043 3.29292 19.392 16.7802 15.051 24.019C10.3247 32.1926 7.95628 36.1064 3.42573 40.1925H6.35146H33.6583H58.0394H571.018H650.5C630.356 33.9562 620.787 29.701 610.515 19.118C610.515 19.118 600.375 6.72971 574.431 19.118Z" fill="black"/>
</svg>
